<?xml version="1.0" encoding="UTF-8" standalone="no"?>
<!DOCTYPE svg PUBLIC "-//W3C//DTD SVG 1.1//EN" "http://www.w3.org/Graphics/SVG/1.1/DTD/svg11.dtd">
<svg width="100%" height="100%" viewBox="0 0 316 338" version="1.1" xmlns="http://www.w3.org/2000/svg" xmlns:xlink="http://www.w3.org/1999/xlink" xml:space="preserve" xmlns:serif="http://www.serif.com/" style="fill-rule:evenodd;clip-rule:evenodd;stroke-linejoin:round;stroke-miterlimit:2;">
    <g transform="matrix(1,0,0,1,35,28)">
        <path d="M224.625,122.625C204.852,142.169 205.15,142.712 202.529,143.573C197.179,145.33 196.809,145.128 192.158,141.996C186.973,138.621 186.784,138.945 175.569,131.392C162.881,122.845 162.829,122.972 149.737,115.098C147.074,113.497 140.083,106.876 135.806,113.667C134.422,115.864 135.082,116.133 134.89,219.504C134.868,231.48 135.268,232.599 127.697,237.785C117.608,244.697 51.212,283.515 47.212,286.044C34.53,294.065 27.944,296.694 16.452,289.577C12.504,287.132 8.963,281.831 8.386,276.516C7.341,266.895 8.478,266.86 8.071,118.501C8.003,93.896 7.215,86.495 17.118,77.098C21.037,73.378 25.198,72.043 33.679,66.808C35.688,65.568 35.759,65.761 59.291,52.145C76.287,42.31 120.09,18.262 132.652,10.754C133.178,10.44 148.481,0.417 161.282,13.712C172.573,25.44 240.842,91.441 242.568,94.457C247.502,103.081 240.177,106.892 229.156,118.172C228.801,118.536 228.751,118.477 224.625,122.625Z" style="fill:white;fill-opacity:0.99;"/>
        <path d="M167.552,145.416C169.438,146.636 169.499,146.488 171.392,147.684C196.215,163.368 196.271,163.246 198.425,164.613C238.814,190.247 238.852,190.178 240.175,190.992C245.345,194.17 244.148,199.02 240.419,201.367C240.369,201.399 226.755,209.08 226.385,209.263C219.87,212.49 218.77,213.576 215.421,215.352C214.789,215.687 209.796,218.334 207.538,219.578C172.626,238.986 172.697,239.105 169.638,240.751C165.087,243.077 155.843,249.627 153.475,241.507C153.23,240.666 153.243,240.641 153.16,171.505C152.925,145.377 153.258,145.362 153.561,144.523C156.137,137.401 165.054,143.767 167.552,145.416Z" style="fill:rgb(252,80,57);fill-opacity:0.98;"/>
        <path d="M189.147,165.179C189.297,164.978 189.601,164.93 189.751,164.729C190.592,163.597 190.933,162.096 191.136,163.5C191.231,164.156 190.756,164.557 190.682,164.619C190.035,165.165 189.794,164.633 189.147,165.179Z" style="fill:rgb(252,79,54);fill-opacity:1;"/>
    </g>
</svg>
